<svg xmlns="http://www.w3.org/2000/svg" xmlns:xlink="http://www.w3.org/1999/xlink" contentStyleType="text/css" data-diagram-type="SEQUENCE" height="1496px" preserveAspectRatio="none" style="width:1202px;height:1496px;background:#FFFFFF;" version="1.1" viewBox="0 0 1202 1496" width="1202px" zoomAndPan="magnify"><title>Lu&#7891;ng 3: Thanh to&#225;n &#8212; PAYOS &amp; ti&#7873;n m&#7863;t (ch&#7881; khi &#273;&#417;n COMPLETED/DELIVERING)</title><defs/><g><text fill="#000000" font-family="sans-serif" font-size="14" font-weight="bold" lengthAdjust="spacing" textLength="550.9561" x="321.8784" y="29.5332">Lu&#7891;ng 3: Thanh to&#225;n &#8212; PAYOS &amp; ti&#7873;n m&#7863;t (ch&#7881; khi &#273;&#417;n COMPLETED/DELIVERING)</text><g><title>API Backend</title><rect fill="#FFFFFF" height="1254.7031" style="stroke:#181818;stroke-width:1;" width="10" x="485.0918" y="134.8281"/></g><rect fill="none" height="986.8906" style="stroke:#000000;stroke-width:1.5;" width="1175.7129" x="10" y="342.9375"/><rect fill="none" height="216.2969" style="stroke:#000000;stroke-width:1.5;" width="1050.5703" x="20" y="505.5313"/><rect fill="none" height="542.6484" style="stroke:#000000;stroke-width:1.5;" width="956.2671" x="219.4458" y="780.1797"/><rect fill="none" height="259.6484" style="stroke:#000000;stroke-width:1.5;" width="657.9473" x="412.623" y="918.9375"/><g><title>Admin . Staff</title><rect fill="#000000" fill-opacity="0.00000" height="1274.7031" width="8" x="69.0723" y="124.8281"/><line style="stroke:#181818;stroke-width:0.5;stroke-dasharray:5,5;" x1="73" x2="73" y1="124.8281" y2="1399.5313"/></g><g><title>Kh.ch h.ng</title><rect fill="#000000" fill-opacity="0.00000" height="1274.7031" width="8" x="265.811" y="124.8281"/><line style="stroke:#181818;stroke-width:0.5;stroke-dasharray:5,5;" x1="269.4458" x2="269.4458" y1="124.8281" y2="1399.5313"/></g><g><title>API Backend</title><rect fill="#000000" fill-opacity="0.00000" height="1274.7031" width="8" x="486.0918" y="124.8281"/><line style="stroke:#181818;stroke-width:0.5;stroke-dasharray:5,5;" x1="489.623" x2="489.623" y1="124.8281" y2="1399.5313"/></g><g><title>C.ng PAYOS</title><rect fill="#000000" fill-opacity="0.00000" height="1274.7031" width="8" x="874.9087" y="124.8281"/><line style="stroke:#181818;stroke-width:0.5;stroke-dasharray:5,5;" x1="878.1089" x2="878.1089" y1="124.8281" y2="1399.5313"/></g><g><title>PostgreSQL</title><rect fill="#000000" fill-opacity="0.00000" height="1274.7031" width="8" x="1015.4395" y="124.8281"/><line style="stroke:#181818;stroke-width:0.5;stroke-dasharray:5,5;" x1="1019.3086" x2="1019.3086" y1="124.8281" y2="1399.5313"/></g><g class="participant participant-head" data-participant="Staff"><text fill="#000000" font-family="sans-serif" font-size="14" lengthAdjust="spacing" textLength="80.1445" x="30" y="121.752">Admin / Staff</text><ellipse cx="73.0723" cy="55.7188" fill="#E2E2F0" rx="8" ry="8" style="stroke:#181818;stroke-width:0.5;"/><path d="M73.0723,63.7188 L73.0723,90.7188 M60.0723,71.7188 L86.0723,71.7188 M73.0723,90.7188 L60.0723,105.7188 M73.0723,90.7188 L86.0723,105.7188" fill="none" style="stroke:#181818;stroke-width:0.5;"/></g><g class="participant participant-tail" data-participant="Staff"><text fill="#000000" font-family="sans-serif" font-size="14" lengthAdjust="spacing" textLength="80.1445" x="30" y="1413.0645">Admin / Staff</text><ellipse cx="73.0723" cy="1424.6406" fill="#E2E2F0" rx="8" ry="8" style="stroke:#181818;stroke-width:0.5;"/><path d="M73.0723,1432.6406 L73.0723,1459.6406 M60.0723,1440.6406 L86.0723,1440.6406 M73.0723,1459.6406 L60.0723,1474.6406 M73.0723,1459.6406 L86.0723,1474.6406" fill="none" style="stroke:#181818;stroke-width:0.5;"/></g><g class="participant participant-head" data-participant="Customer"><text fill="#000000" font-family="sans-serif" font-size="14" lengthAdjust="spacing" textLength="74.7305" x="229.4458" y="121.752">Kh&#225;ch h&#224;ng</text><ellipse cx="269.811" cy="55.7188" fill="#E2E2F0" rx="8" ry="8" style="stroke:#181818;stroke-width:0.5;"/><path d="M269.811,63.7188 L269.811,90.7188 M256.811,71.7188 L282.811,71.7188 M269.811,90.7188 L256.811,105.7188 M269.811,90.7188 L282.811,105.7188" fill="none" style="stroke:#181818;stroke-width:0.5;"/></g><g class="participant participant-tail" data-participant="Customer"><text fill="#000000" font-family="sans-serif" font-size="14" lengthAdjust="spacing" textLength="74.7305" x="229.4458" y="1413.0645">Kh&#225;ch h&#224;ng</text><ellipse cx="269.811" cy="1424.6406" fill="#E2E2F0" rx="8" ry="8" style="stroke:#181818;stroke-width:0.5;"/><path d="M269.811,1432.6406 L269.811,1459.6406 M256.811,1440.6406 L282.811,1440.6406 M269.811,1459.6406 L256.811,1474.6406 M269.811,1459.6406 L282.811,1474.6406" fill="none" style="stroke:#181818;stroke-width:0.5;"/></g><g class="participant participant-head" data-participant="Backend"><rect fill="#E2E2F0" height="49.2188" rx="2.5" ry="2.5" style="stroke:#181818;stroke-width:0.5;" width="94.9375" x="442.623" y="74.6094"/><text fill="#000000" font-family="sans-serif" font-size="14" lengthAdjust="spacing" textLength="80.9375" x="449.623" y="96.1426">API Backend</text><text fill="#000000" font-family="sans-serif" font-size="14" lengthAdjust="spacing" textLength="54.4482" x="462.8677" y="113.752">(NestJS)</text></g><g class="participant participant-tail" data-participant="Backend"><rect fill="#E2E2F0" height="49.2188" rx="2.5" ry="2.5" style="stroke:#181818;stroke-width:0.5;" width="94.9375" x="442.623" y="1398.5313"/><text fill="#000000" font-family="sans-serif" font-size="14" lengthAdjust="spacing" textLength="80.9375" x="449.623" y="1420.0645">API Backend</text><text fill="#000000" font-family="sans-serif" font-size="14" lengthAdjust="spacing" textLength="54.4482" x="462.8677" y="1437.6738">(NestJS)</text></g><g class="participant participant-head" data-participant="PayOS"><rect fill="#E2E2F0" height="31.6094" rx="2.5" ry="2.5" style="stroke:#181818;stroke-width:0.5;" width="99.5996" x="829.1089" y="92.2188"/><text fill="#000000" font-family="sans-serif" font-size="14" lengthAdjust="spacing" textLength="85.5996" x="836.1089" y="113.752">C&#7893;ng PAYOS</text></g><g class="participant participant-tail" data-participant="PayOS"><rect fill="#E2E2F0" height="31.6094" rx="2.5" ry="2.5" style="stroke:#181818;stroke-width:0.5;" width="99.5996" x="829.1089" y="1398.5313"/><text fill="#000000" font-family="sans-serif" font-size="14" lengthAdjust="spacing" textLength="85.5996" x="836.1089" y="1420.0645">C&#7893;ng PAYOS</text></g><g class="participant participant-head" data-participant="DB"><text fill="#000000" font-family="sans-serif" font-size="14" lengthAdjust="spacing" textLength="76.2617" x="978.3086" y="104.1426">PostgreSQL</text><text fill="#000000" font-family="sans-serif" font-size="14" lengthAdjust="spacing" textLength="72.3789" x="980.25" y="121.752">(Supabase)</text><path d="M1001.4395,53.6094 C1001.4395,43.6094 1019.4395,43.6094 1019.4395,43.6094 C1019.4395,43.6094 1037.4395,43.6094 1037.4395,53.6094 L1037.4395,79.6094 C1037.4395,89.6094 1019.4395,89.6094 1019.4395,89.6094 C1019.4395,89.6094 1001.4395,89.6094 1001.4395,79.6094 L1001.4395,53.6094" fill="#E2E2F0" style="stroke:#181818;stroke-width:0.5;"/><path d="M1001.4395,53.6094 C1001.4395,63.6094 1019.4395,63.6094 1019.4395,63.6094 C1019.4395,63.6094 1037.4395,63.6094 1037.4395,53.6094" fill="none" style="stroke:#181818;stroke-width:0.5;"/></g><g class="participant participant-tail" data-participant="DB"><text fill="#000000" font-family="sans-serif" font-size="14" lengthAdjust="spacing" textLength="76.2617" x="978.3086" y="1413.0645">PostgreSQL</text><text fill="#000000" font-family="sans-serif" font-size="14" lengthAdjust="spacing" textLength="72.3789" x="980.25" y="1430.6738">(Supabase)</text><path d="M1001.4395,1443.75 C1001.4395,1433.75 1019.4395,1433.75 1019.4395,1433.75 C1019.4395,1433.75 1037.4395,1433.75 1037.4395,1443.75 L1037.4395,1469.75 C1037.4395,1479.75 1019.4395,1479.75 1019.4395,1479.75 C1019.4395,1479.75 1001.4395,1479.75 1001.4395,1469.75 L1001.4395,1443.75" fill="#E2E2F0" style="stroke:#181818;stroke-width:0.5;"/><path d="M1001.4395,1443.75 C1001.4395,1453.75 1019.4395,1453.75 1019.4395,1453.75 C1019.4395,1453.75 1037.4395,1453.75 1037.4395,1443.75" fill="none" style="stroke:#181818;stroke-width:0.5;"/></g><g><title>API Backend</title><rect fill="#FFFFFF" height="1254.7031" style="stroke:#181818;stroke-width:1;" width="10" x="485.0918" y="134.8281"/></g><path d="M33,139.8281 L33,181.8281 L1058,181.8281 L1058,149.8281 L1048,139.8281 L33,139.8281" fill="#FEFFDD" style="stroke:#181818;stroke-width:0.5;"/><path d="M1048,139.8281 L1048,149.8281 L1058,149.8281 L1048,139.8281" fill="#FEFFDD" style="stroke:#181818;stroke-width:0.5;"/><text fill="#000000" font-family="sans-serif" font-size="13" lengthAdjust="spacing" textLength="352.314" x="338.6235" y="158.3232">&#272;i&#7873;u ki&#7879;n v&#224;o: &#273;&#417;n &#273;ang &#7903; COMPLETED ho&#7863;c DELIVERING</text><text fill="#000000" font-family="sans-serif" font-size="13" lengthAdjust="spacing" textLength="405.3232" x="338.6235" y="174.6748">(order.service.completeDelivery g&#7885;i paymentService.processPayment)</text><rect fill="#EEEEEE" height="3" style="stroke:#EEEEEE;stroke-width:1;" width="1195.7129" x="0" y="208.707"/><line style="stroke:#000000;stroke-width:1;" x1="0" x2="1195.7129" y1="208.707" y2="208.707"/><line style="stroke:#000000;stroke-width:1;" x1="0" x2="1195.7129" y1="211.707" y2="211.707"/><rect fill="#EEEEEE" height="24.3516" style="stroke:#000000;stroke-width:2;" width="162.6367" x="516.5381" y="197.5313"/><text fill="#000000" font-family="sans-serif" font-size="13" font-weight="bold" lengthAdjust="spacing" textLength="145.0249" x="522.5381" y="215.0264">3a. Kh&#7903;i t&#7841;o thanh to&#225;n</text><g class="message" data-participant-1="Staff" data-participant-2="Backend"><polygon fill="#181818" points="473.0918,250.2344,483.0918,254.2344,473.0918,258.2344,477.0918,254.2344" style="stroke:#181818;stroke-width:1;"/><line style="stroke:#181818;stroke-width:1;" x1="73.0723" x2="479.0918" y1="254.2344" y2="254.2344"/><text fill="#000000" font-family="sans-serif" font-size="13" lengthAdjust="spacing" textLength="388.0195" x="80.0723" y="249.3779">POST /orders/:id/complete-delivery { amountReceived?, provider? }</text></g><g class="message" data-participant-1="Backend" data-participant-2="Backend"><line style="stroke:#181818;stroke-width:1;" x1="495.0918" x2="537.0918" y1="284.5859" y2="284.5859"/><line style="stroke:#181818;stroke-width:1;" x1="537.0918" x2="537.0918" y1="284.5859" y2="297.5859"/><line style="stroke:#181818;stroke-width:1;" x1="496.0918" x2="537.0918" y1="297.5859" y2="297.5859"/><polygon fill="#181818" points="506.0918,293.5859,496.0918,297.5859,506.0918,301.5859,502.0918,297.5859" style="stroke:#181818;stroke-width:1;"/><text fill="#000000" font-family="sans-serif" font-size="13" lengthAdjust="spacing" textLength="292.6206" x="502.0918" y="279.7295">processPayment(orderId, userId, currentStatus, ...)</text></g><g class="message" data-participant-1="Backend" data-participant-2="DB"><polygon fill="#181818" points="1007.4395,323.9375,1017.4395,327.9375,1007.4395,331.9375,1011.4395,327.9375" style="stroke:#181818;stroke-width:1;"/><line style="stroke:#181818;stroke-width:1;" x1="495.0918" x2="1013.4395" y1="327.9375" y2="327.9375"/><text fill="#000000" font-family="sans-serif" font-size="13" lengthAdjust="spacing" textLength="387.9751" x="502.0918" y="323.0811">INSERT payments (provider, amount=totalPrice, status=PENDING)</text></g><path d="M10,342.9375 L70.1709,342.9375 L70.1709,351.2891 L60.1709,361.2891 L10,361.2891 L10,342.9375" fill="#EEEEEE" style="stroke:#000000;stroke-width:1.5;"/><rect fill="none" height="986.8906" style="stroke:#000000;stroke-width:1.5;" width="1175.7129" x="10" y="342.9375"/><text fill="#000000" font-family="sans-serif" font-size="13" font-weight="bold" lengthAdjust="spacing" textLength="15.1709" x="25" y="357.4326">alt</text><text fill="#000000" font-family="sans-serif" font-size="11" font-weight="bold" lengthAdjust="spacing" textLength="132.9238" x="85.1709" y="356.3564">[provider = CASH  (COD)]</text><g class="message" data-participant-1="Backend" data-participant-2="DB"><polygon fill="#181818" points="1007.4395,379.6406,1017.4395,383.6406,1007.4395,387.6406,1011.4395,383.6406" style="stroke:#181818;stroke-width:1;"/><line style="stroke:#181818;stroke-width:1;" x1="495.0918" x2="1013.4395" y1="383.6406" y2="383.6406"/><text fill="#000000" font-family="sans-serif" font-size="13" lengthAdjust="spacing" textLength="406.0405" x="502.0918" y="378.7842">UPDATE orders SET status=DELIVERED, paymentStatus=SUCCESS</text></g><g class="message" data-participant-1="Backend" data-participant-2="DB"><polygon fill="#181818" points="1007.4395,409.9922,1017.4395,413.9922,1007.4395,417.9922,1011.4395,413.9922" style="stroke:#181818;stroke-width:1;"/><line style="stroke:#181818;stroke-width:1;" x1="495.0918" x2="1013.4395" y1="413.9922" y2="413.9922"/><text fill="#000000" font-family="sans-serif" font-size="13" lengthAdjust="spacing" textLength="325.8569" x="502.0918" y="409.1357">UPDATE payments SET status=SUCCESS, paidAt=now</text></g><g class="message" data-participant-1="Backend" data-participant-2="DB"><polygon fill="#181818" points="1007.4395,440.3438,1017.4395,444.3438,1007.4395,448.3438,1011.4395,444.3438" style="stroke:#181818;stroke-width:1;"/><line style="stroke:#181818;stroke-width:1;" x1="495.0918" x2="1013.4395" y1="444.3438" y2="444.3438"/><text fill="#000000" font-family="sans-serif" font-size="13" lengthAdjust="spacing" textLength="472.4497" x="502.0918" y="439.4873">tracking log (COD: nh&#7853;n X, ti&#7873;n th&#7915;a Y) + Notification "&#272;&#227; giao + thanh to&#225;n COD"</text></g><g class="message" data-participant-1="Backend" data-participant-2="Staff"><polygon fill="#181818" points="84.0723,470.6953,74.0723,474.6953,84.0723,478.6953,80.0723,474.6953" style="stroke:#181818;stroke-width:1;"/><line style="stroke:#181818;stroke-width:1;stroke-dasharray:2,2;" x1="78.0723" x2="484.0918" y1="474.6953" y2="474.6953"/><text fill="#000000" font-family="sans-serif" font-size="13" lengthAdjust="spacing" textLength="260.127" x="90.0723" y="469.8389">200 { status: DELIVERED, checkoutUrl: null }</text></g><line style="stroke:#000000;stroke-width:1;stroke-dasharray:2,2;" x1="10" x2="1185.7129" y1="483.6953" y2="483.6953"/><text fill="#000000" font-family="sans-serif" font-size="11" font-weight="bold" lengthAdjust="spacing" textLength="102.3838" x="15" y="495.1143">[provider = PAYOS]</text><path d="M20,505.5313 L80.1709,505.5313 L80.1709,513.8828 L70.1709,523.8828 L20,523.8828 L20,505.5313" fill="#EEEEEE" style="stroke:#000000;stroke-width:1.5;"/><rect fill="none" height="216.2969" style="stroke:#000000;stroke-width:1.5;" width="1050.5703" x="20" y="505.5313"/><text fill="#000000" font-family="sans-serif" font-size="13" font-weight="bold" lengthAdjust="spacing" textLength="15.1709" x="35" y="520.0264">alt</text><text fill="#000000" font-family="sans-serif" font-size="11" font-weight="bold" lengthAdjust="spacing" textLength="163.7915" x="95.1709" y="518.9502">[C&#243; c&#7845;u h&#236;nh PAYOS (key th&#7853;t)]</text><g class="message" data-participant-1="Backend" data-participant-2="PayOS"><polygon fill="#181818" points="866.9087,542.2344,876.9087,546.2344,866.9087,550.2344,870.9087,546.2344" style="stroke:#181818;stroke-width:1;"/><line style="stroke:#181818;stroke-width:1;" x1="495.0918" x2="872.9087" y1="546.2344" y2="546.2344"/><text fill="#000000" font-family="sans-serif" font-size="13" lengthAdjust="spacing" textLength="359.8169" x="502.0918" y="541.3779">paymentLinks.create(orderCode, amount, returnUrl, cancelUrl)</text></g><g class="message" data-participant-1="PayOS" data-participant-2="Backend"><polygon fill="#181818" points="506.0918,572.5859,496.0918,576.5859,506.0918,580.5859,502.0918,576.5859" style="stroke:#181818;stroke-width:1;"/><line style="stroke:#181818;stroke-width:1;stroke-dasharray:2,2;" x1="500.0918" x2="877.9087" y1="576.5859" y2="576.5859"/><text fill="#000000" font-family="sans-serif" font-size="13" lengthAdjust="spacing" textLength="68.6372" x="512.0918" y="571.7295">checkoutUrl</text></g><g class="message" data-participant-1="Backend" data-participant-2="DB"><polygon fill="#181818" points="1007.4395,602.9375,1017.4395,606.9375,1007.4395,610.9375,1011.4395,606.9375" style="stroke:#181818;stroke-width:1;"/><line style="stroke:#181818;stroke-width:1;" x1="495.0918" x2="1013.4395" y1="606.9375" y2="606.9375"/><text fill="#000000" font-family="sans-serif" font-size="13" lengthAdjust="spacing" textLength="382.5923" x="502.0918" y="602.0811">UPDATE payments SET providerRef=orderCode, providerPayload</text></g><g class="message" data-participant-1="Backend" data-participant-2="Staff"><polygon fill="#181818" points="84.0723,633.2891,74.0723,637.2891,84.0723,641.2891,80.0723,637.2891" style="stroke:#181818;stroke-width:1;"/><line style="stroke:#181818;stroke-width:1;stroke-dasharray:2,2;" x1="78.0723" x2="484.0918" y1="637.2891" y2="637.2891"/><text fill="#000000" font-family="sans-serif" font-size="13" lengthAdjust="spacing" textLength="322.2324" x="90.0723" y="632.4326">200 { status: COMPLETED/DELIVERING, checkoutUrl }</text></g><g class="message" data-participant-1="Staff" data-participant-2="Customer"><polygon fill="#181818" points="257.811,663.6406,267.811,667.6406,257.811,671.6406,261.811,667.6406" style="stroke:#181818;stroke-width:1;"/><line style="stroke:#181818;stroke-width:1;" x1="73.0723" x2="263.811" y1="667.6406" y2="667.6406"/><text fill="#000000" font-family="sans-serif" font-size="13" lengthAdjust="spacing" textLength="172.7388" x="80.0723" y="662.7842">Chuy&#7875;n cho kh&#225;ch thanh to&#225;n</text></g><line style="stroke:#000000;stroke-width:1;stroke-dasharray:2,2;" x1="20" x2="1070.5703" y1="676.6406" y2="676.6406"/><text fill="#000000" font-family="sans-serif" font-size="11" font-weight="bold" lengthAdjust="spacing" textLength="194.3691" x="25" y="688.0596">[Ch&#7871; &#273;&#7897; test (ch&#432;a c&#7845;u h&#236;nh PAYOS)]</text><g class="message" data-participant-1="Backend" data-participant-2="Staff"><polygon fill="#181818" points="84.0723,709.8281,74.0723,713.8281,84.0723,717.8281,80.0723,713.8281" style="stroke:#181818;stroke-width:1;"/><line style="stroke:#181818;stroke-width:1;stroke-dasharray:2,2;" x1="78.0723" x2="484.0918" y1="713.8281" y2="713.8281"/><text fill="#000000" font-family="sans-serif" font-size="13" lengthAdjust="spacing" textLength="151.7534" x="90.0723" y="708.9717">200 { status, checkoutUrl }</text></g><rect fill="#EEEEEE" height="3" style="stroke:#EEEEEE;stroke-width:1;" width="1195.7129" x="0" y="750.0039"/><line style="stroke:#000000;stroke-width:1;" x1="0" x2="1195.7129" y1="750.0039" y2="750.0039"/><line style="stroke:#000000;stroke-width:1;" x1="0" x2="1195.7129" y1="753.0039" y2="753.0039"/><rect fill="#EEEEEE" height="24.3516" style="stroke:#000000;stroke-width:2;" width="149.7827" x="522.9651" y="738.8281"/><text fill="#000000" font-family="sans-serif" font-size="13" font-weight="bold" lengthAdjust="spacing" textLength="132.1709" x="528.9651" y="756.3232">3b. Kh&#225;ch thanh to&#225;n</text><path d="M219.4458,780.1797 L279.6167,780.1797 L279.6167,788.5313 L269.6167,798.5313 L219.4458,798.5313 L219.4458,780.1797" fill="#EEEEEE" style="stroke:#000000;stroke-width:1.5;"/><rect fill="none" height="542.6484" style="stroke:#000000;stroke-width:1.5;" width="956.2671" x="219.4458" y="780.1797"/><text fill="#000000" font-family="sans-serif" font-size="13" font-weight="bold" lengthAdjust="spacing" textLength="15.1709" x="234.4458" y="794.6748">alt</text><text fill="#000000" font-family="sans-serif" font-size="11" font-weight="bold" lengthAdjust="spacing" textLength="243.2568" x="294.6167" y="793.5986">[Kh&#225;ch ch&#7885;n c&#7893;ng tr&#234;n link PayOS / trang test]</text><g class="message" data-participant-1="Customer" data-participant-2="PayOS"><polygon fill="#181818" points="866.9087,816.8828,876.9087,820.8828,866.9087,824.8828,870.9087,820.8828" style="stroke:#181818;stroke-width:1;"/><line style="stroke:#181818;stroke-width:1;" x1="269.811" x2="872.9087" y1="820.8828" y2="820.8828"/><text fill="#000000" font-family="sans-serif" font-size="13" lengthAdjust="spacing" textLength="104.0825" x="276.811" y="816.0264">Thanh to&#225;n online</text></g><g class="message" data-participant-1="PayOS" data-participant-2="Backend"><polygon fill="#181818" points="506.0918,858.4102,496.0918,862.4102,506.0918,866.4102,502.0918,862.4102" style="stroke:#181818;stroke-width:1;"/><line style="stroke:#181818;stroke-width:1;" x1="500.0918" x2="877.9087" y1="862.4102" y2="862.4102"/><text fill="#000000" font-family="sans-serif" font-size="13" lengthAdjust="spacing" textLength="285.416" x="512.0918" y="857.5537">POST /payments/payos-webhook (webhookData)</text></g><path d="M883,833.8828 L883,875.8828 L1159,875.8828 L1159,843.8828 L1149,833.8828 L883,833.8828" fill="#FEFFDD" style="stroke:#181818;stroke-width:0.5;"/><path d="M1149,833.8828 L1149,843.8828 L1159,843.8828 L1149,833.8828" fill="#FEFFDD" style="stroke:#181818;stroke-width:0.5;"/><text fill="#000000" font-family="sans-serif" font-size="13" lengthAdjust="spacing" textLength="255.8042" x="889" y="852.3779">GET /payments/payos-webhook c&#361;ng t&#7891;n t&#7841;i</text><text fill="#000000" font-family="sans-serif" font-size="13" lengthAdjust="spacing" textLength="234.0825" x="889" y="868.7295">(tr&#7843; { success: true } &#8212; &#273;&#7875; PayOS verify)</text><g class="message" data-participant-1="Backend" data-participant-2="PayOS"><polygon fill="#181818" points="866.9087,899.9375,876.9087,903.9375,866.9087,907.9375,870.9087,903.9375" style="stroke:#181818;stroke-width:1;"/><line style="stroke:#181818;stroke-width:1;" x1="495.0918" x2="872.9087" y1="903.9375" y2="903.9375"/><text fill="#000000" font-family="sans-serif" font-size="13" lengthAdjust="spacing" textLength="216.0552" x="502.0918" y="899.0811">verifyPaymentWebhookData (ch&#7919; k&#253;)</text></g><path d="M412.623,918.9375 L472.7939,918.9375 L472.7939,927.2891 L462.7939,937.2891 L412.623,937.2891 L412.623,918.9375" fill="#EEEEEE" style="stroke:#000000;stroke-width:1.5;"/><rect fill="none" height="259.6484" style="stroke:#000000;stroke-width:1.5;" width="657.9473" x="412.623" y="918.9375"/><text fill="#000000" font-family="sans-serif" font-size="13" font-weight="bold" lengthAdjust="spacing" textLength="15.1709" x="427.623" y="933.4326">alt</text><text fill="#000000" font-family="sans-serif" font-size="11" font-weight="bold" lengthAdjust="spacing" textLength="78.5415" x="487.7939" y="932.3564">[status = PAID]</text><g class="message" data-participant-1="Backend" data-participant-2="DB"><polygon fill="#181818" points="1007.4395,955.6406,1017.4395,959.6406,1007.4395,963.6406,1011.4395,959.6406" style="stroke:#181818;stroke-width:1;"/><line style="stroke:#181818;stroke-width:1;" x1="495.0918" x2="1013.4395" y1="959.6406" y2="959.6406"/><text fill="#000000" font-family="sans-serif" font-size="13" lengthAdjust="spacing" textLength="354.7705" x="502.0918" y="954.7842">UPDATE payments SET status=SUCCESS, paidAt + payload</text></g><g class="message" data-participant-1="Backend" data-participant-2="DB"><polygon fill="#181818" points="1007.4395,985.9922,1017.4395,989.9922,1007.4395,993.9922,1011.4395,989.9922" style="stroke:#181818;stroke-width:1;"/><line style="stroke:#181818;stroke-width:1;" x1="495.0918" x2="1013.4395" y1="989.9922" y2="989.9922"/><text fill="#000000" font-family="sans-serif" font-size="13" lengthAdjust="spacing" textLength="406.0405" x="502.0918" y="985.1357">UPDATE orders SET status=DELIVERED, paymentStatus=SUCCESS</text></g><g class="message" data-participant-1="Backend" data-participant-2="DB"><polygon fill="#181818" points="1007.4395,1016.3438,1017.4395,1020.3438,1007.4395,1024.3438,1011.4395,1020.3438" style="stroke:#181818;stroke-width:1;"/><line style="stroke:#181818;stroke-width:1;" x1="495.0918" x2="1013.4395" y1="1020.3438" y2="1020.3438"/><text fill="#000000" font-family="sans-serif" font-size="13" lengthAdjust="spacing" textLength="280.9663" x="502.0918" y="1015.4873">Notification "Thanh to&#225;n th&#224;nh c&#244;ng qua PayOS"</text></g><g class="message" data-participant-1="Backend" data-participant-2="Backend"><line style="stroke:#181818;stroke-width:1;" x1="495.0918" x2="537.0918" y1="1050.6953" y2="1050.6953"/><line style="stroke:#181818;stroke-width:1;" x1="537.0918" x2="537.0918" y1="1050.6953" y2="1063.6953"/><line style="stroke:#181818;stroke-width:1;" x1="496.0918" x2="537.0918" y1="1063.6953" y2="1063.6953"/><polygon fill="#181818" points="506.0918,1059.6953,496.0918,1063.6953,506.0918,1067.6953,502.0918,1063.6953" style="stroke:#181818;stroke-width:1;"/><text fill="#000000" font-family="sans-serif" font-size="13" lengthAdjust="spacing" textLength="312.0317" x="502.0918" y="1045.8389">emit WebSocket 'order.status-changed' (DELIVERED)</text></g><g class="message" data-participant-1="Backend" data-participant-2="PayOS"><polygon fill="#181818" points="866.9087,1090.0469,876.9087,1094.0469,866.9087,1098.0469,870.9087,1094.0469" style="stroke:#181818;stroke-width:1;"/><line style="stroke:#181818;stroke-width:1;stroke-dasharray:2,2;" x1="495.0918" x2="872.9087" y1="1094.0469" y2="1094.0469"/><text fill="#000000" font-family="sans-serif" font-size="13" lengthAdjust="spacing" textLength="117.7935" x="502.0918" y="1089.1904">200 { success: true }</text></g><line style="stroke:#000000;stroke-width:1;stroke-dasharray:2,2;" x1="412.623" x2="1070.5703" y1="1103.0469" y2="1103.0469"/><text fill="#000000" font-family="sans-serif" font-size="11" font-weight="bold" lengthAdjust="spacing" textLength="120.0923" x="417.623" y="1114.4658">[status = CANCELLED]</text><g class="message" data-participant-1="Backend" data-participant-2="DB"><polygon fill="#181818" points="1007.4395,1136.2344,1017.4395,1140.2344,1007.4395,1144.2344,1011.4395,1140.2344" style="stroke:#181818;stroke-width:1;"/><line style="stroke:#181818;stroke-width:1;" x1="495.0918" x2="1013.4395" y1="1140.2344" y2="1140.2344"/><text fill="#000000" font-family="sans-serif" font-size="13" lengthAdjust="spacing" textLength="232.9971" x="502.0918" y="1135.3779">UPDATE payments SET status=FAILED</text></g><g class="message" data-participant-1="Backend" data-participant-2="PayOS"><polygon fill="#181818" points="866.9087,1166.5859,876.9087,1170.5859,866.9087,1174.5859,870.9087,1170.5859" style="stroke:#181818;stroke-width:1;"/><line style="stroke:#181818;stroke-width:1;stroke-dasharray:2,2;" x1="495.0918" x2="872.9087" y1="1170.5859" y2="1170.5859"/><text fill="#000000" font-family="sans-serif" font-size="13" lengthAdjust="spacing" textLength="122.8525" x="502.0918" y="1165.7295">200 { success: false }</text></g><line style="stroke:#000000;stroke-width:1;stroke-dasharray:2,2;" x1="219.4458" x2="1175.7129" y1="1186.5859" y2="1186.5859"/><text fill="#000000" font-family="sans-serif" font-size="11" font-weight="bold" lengthAdjust="spacing" textLength="310.519" x="224.4458" y="1198.0049">[Qu&#233;t QR trang test (GET /pay/:id &#8594; POST /pay/:id/confirm)]</text><g class="message" data-participant-1="Customer" data-participant-2="Backend"><polygon fill="#181818" points="473.0918,1219.7734,483.0918,1223.7734,473.0918,1227.7734,477.0918,1223.7734" style="stroke:#181818;stroke-width:1;"/><line style="stroke:#181818;stroke-width:1;" x1="269.811" x2="479.0918" y1="1223.7734" y2="1223.7734"/><text fill="#000000" font-family="sans-serif" font-size="13" lengthAdjust="spacing" textLength="127.1499" x="276.811" y="1218.917">POST /pay/:id/confirm</text></g><g class="message" data-participant-1="Backend" data-participant-2="DB"><polygon fill="#181818" points="1007.4395,1250.125,1017.4395,1254.125,1007.4395,1258.125,1011.4395,1254.125" style="stroke:#181818;stroke-width:1;"/><line style="stroke:#181818;stroke-width:1;" x1="495.0918" x2="1013.4395" y1="1254.125" y2="1254.125"/><text fill="#000000" font-family="sans-serif" font-size="13" lengthAdjust="spacing" textLength="500.3477" x="502.0918" y="1249.2686">UPDATE payments SET status=SUCCESS, paidAt + order.paymentStatus=SUCCESS</text></g><g class="message" data-participant-1="Backend" data-participant-2="DB"><polygon fill="#181818" points="1007.4395,1280.4766,1017.4395,1284.4766,1007.4395,1288.4766,1011.4395,1284.4766" style="stroke:#181818;stroke-width:1;"/><line style="stroke:#181818;stroke-width:1;" x1="495.0918" x2="1013.4395" y1="1284.4766" y2="1284.4766"/><text fill="#000000" font-family="sans-serif" font-size="13" lengthAdjust="spacing" textLength="210.8691" x="502.0918" y="1279.6201">Notification "Thanh to&#225;n th&#224;nh c&#244;ng"</text></g><g class="message" data-participant-1="Backend" data-participant-2="Customer"><polygon fill="#181818" points="280.811,1310.8281,270.811,1314.8281,280.811,1318.8281,276.811,1314.8281" style="stroke:#181818;stroke-width:1;"/><line style="stroke:#181818;stroke-width:1;stroke-dasharray:2,2;" x1="274.811" x2="484.0918" y1="1314.8281" y2="1314.8281"/><text fill="#000000" font-family="sans-serif" font-size="13" lengthAdjust="spacing" textLength="92.4917" x="286.811" y="1309.9717">{ success: true }</text></g><path d="M33,1341.8281 L33,1383.8281 L1058,1383.8281 L1058,1351.8281 L1048,1341.8281 L33,1341.8281" fill="#FEFFDD" style="stroke:#181818;stroke-width:0.5;"/><path d="M1048,1341.8281 L1048,1351.8281 L1058,1351.8281 L1048,1341.8281" fill="#FEFFDD" style="stroke:#181818;stroke-width:0.5;"/><text fill="#000000" font-family="sans-serif" font-size="13" lengthAdjust="spacing" textLength="360.1343" x="361.218" y="1360.3232">L&#432;u &#253;: CH&#431;A c&#243; endpoint ho&#224;n ti&#7873;n (REFUNDED) trong code.</text><text fill="#000000" font-family="sans-serif" font-size="13" lengthAdjust="spacing" textLength="353.3867" x="361.218" y="1376.6748">Enum PaymentStatus c&#243; REFUNDED nh&#432;ng ch&#432;a tri&#7875;n khai.</text><!--SRC=[hLTBZnD74BxFhoWvKjOMVf1mip38Qm_WOBncnvk0b4ipq_QqFEusCpqB5bef4LAY790WZqDEW50E945iHAH8jX07R_P_c5-Iwfw7nsiCWMIbbSSzrLzNVLNrLNlhe_VzCxQWqxgotJRXzLS_WaLlXfJR5CvKeUSIxe8KyySSyjtwzHqBAj2eMvSAkAUvc1tMeNV9t05RE1IakvZzOODSJ5zL8V3jofXCHfJBvBCSK7-VsRGi0znzAZ5H_sLRSEaBpwC-leNyrLsGD925rEuMlH48UqXbHVWEzKlI9_QGyK5vG2IzXG0Ay_q3Dm846HEVZC1ZVUenJYs4bdGmWK1upCaOT8alcSt6XCikSHmy73uzdNc_BMudwv-SDYIJ7eLsk9ZzW0idg5GqHsn-398jPbzp62scVqd8syZXTp1q6HmzE4RBniwLRjlicSrAqsotFZTtMvsB1SCWjXG-vEhEY77CY2L9lvy34aHFoUlBxlonxO8xVyG7-cqZ3AGOKTyOBsD1b6uBjf5EofqlURw3l7zc5RHzlBfgtbZCViAGjF_QgaicEvRX44bka812hYi2EV2fTRMDS5OuriiHO7DR-yxsaU8KtU02lubzwaVk5vKPmD5znKm8G_pubiF-_96engmSFI3emMBsSCaFk08Pj6594qBaTR6aTMUBqTYZaZOnqNZQ10QBsJq6SNbQiTNO5pODWcwqMZ3GHL0U6aQj1cT86IvZZXuoLUUF1HRzCgsrcc7e2A1qBeck2jqTgmTHsGQLAdCgYHib9_7Z3f2H2BdSfJR55UTy4T2BVOPRpiE14KEjeAvw6GNQSeeG1j6d7Vg-2aeI6GP5A9VBXInESxiAhOvbxlQIyB7haZEBiJirAIJnkZwoKeH08zMwPgSPrw0dKo-XfbK16M_iD0l8_8cZzhhDUi-4Y0Imp5u25wVBR1RJD4GlhBr6mxIiZL2frncmU8-2OavTrhYujRu_KGxmn42xMmNkBgRFE5mh9isebEmt0jSBg3uT8LcVsKGomI5tT7_-10QC27oJJJtYvB9duM6w4gge4QSnlv67LSZ4QxlK7efGxlaUkX1w7cQQUjX06L9rao6kuhenVm7sOlfBY0tzEnuS2KX-I2VAt-apgNXV2LStPZMXgituC2ZRFiNUY-gbWQgTvBe8FfMXpz4RT8sW_dlu645g71rJMduPvq-UkYb9ILYxj5_B79yiuo6U8CugsYOQtoIBAumYbmeexSP4-N2h6quMixiShGKAhLR8J2Pncqv20obzXKApcFsiHv6IvkD3ifw1Y28jOJuRk59_XHLVQd27ZCVuTA3dtPsuMG_q7C1wn6B4WNSRNKbAKPqO0sLeGw2UQVLAPoKReG4PZSzferIX_WLtwonf2GPGudP3YTj9HhIiHIKOlrH3wXuI60q2wSz_vJW- -J0kb4eSKnf4Gdwc9hFJK70rTxELjgQUII6f1n6Ky3RW2Z64VFpGnDcp8GyNpStRxR-VAZVLYDPgpk8zUUalfayKPQ6jH5Q9HaWXofSgYRkneoZUh3yfl2K9QS2HQIpNNopTZaR-SnZENqOuYkSeLRh_MytOgG-MGLIgSQQt_bTjVWFSgbvcyopLHGIhP_udidup914rkNMODFbqn2GWMPQ- -i5MFCwr5oKReGVKsO9ywcWXnegoSxPKMaB5FR2Qq2XngjrJnXlrJiDijyttf_r2lRNSzcuF-aITUv3KJg8xLyFvKwdaODb3a4-AM5qVuFKtto-x8hvGy3xpHniweAU1qkrkT9t2PAWqICRZEzKfuFDfiYTtBID6HmzmvcK48RTUxzaENs_Th9F6Vwtbg0Os5-G7bMDkJJgN0-DDLQCIzfQhQ_luC8JvInmsbuwVr_685sh7M32yFxi2Zqqk6lbTyy9UfucLYzW2yw5-I9KHmUIX-iMH2LAZ9EQOckD3PQvdalIPdcX3bx1ovhxgqBMxzZy0]--></g></svg>