<svg xmlns="http://www.w3.org/2000/svg" xmlns:xlink="http://www.w3.org/1999/xlink" contentStyleType="text/css" data-diagram-type="SEQUENCE" height="1531px" preserveAspectRatio="none" style="width:1627px;height:1531px;background:#FFFFFF;" version="1.1" viewBox="0 0 1627 1531" width="1627px" zoomAndPan="magnify"><title>Lu&#7891;ng 1: T&#7841;o &#273;&#417;n &#8594; x&#225;c nh&#7853;n &#8594; g&#225;n shipper</title><defs/><g><text fill="#000000" font-family="sans-serif" font-size="14" font-weight="bold" lengthAdjust="spacing" textLength="299.4482" x="660.1621" y="29.5332">Lu&#7891;ng 1: T&#7841;o &#273;&#417;n &#8594; x&#225;c nh&#7853;n &#8594; g&#225;n shipper</text><g><title>API Backend</title><rect fill="#FFFFFF" height="1288.9531" style="stroke:#181818;stroke-width:1;" width="10" x="540.3608" y="134.8281"/></g><rect fill="none" height="514.1641" style="stroke:#000000;stroke-width:1.5;" width="1152.8804" x="457.8921" y="902.6172"/><rect fill="none" height="48.7031" style="stroke:#000000;stroke-width:1.5;" width="718.5166" x="467.8921" y="1106.7813"/><g><title>Kh.ch h.ng</title><rect fill="#000000" fill-opacity="0.00000" height="1308.9531" width="8" x="41.3652" y="124.8281"/><line style="stroke:#181818;stroke-width:0.5;stroke-dasharray:5,5;" x1="45" x2="45" y1="124.8281" y2="1433.7813"/></g><g><title>App Mobile</title><rect fill="#000000" fill-opacity="0.00000" height="1308.9531" width="8" x="321.6011" y="124.8281"/><line style="stroke:#181818;stroke-width:0.5;stroke-dasharray:5,5;" x1="325.5806" x2="325.5806" y1="124.8281" y2="1433.7813"/></g><g><title>API Backend</title><rect fill="#000000" fill-opacity="0.00000" height="1308.9531" width="8" x="541.3608" y="124.8281"/><line style="stroke:#181818;stroke-width:0.5;stroke-dasharray:5,5;" x1="544.8921" x2="544.8921" y1="124.8281" y2="1433.7813"/></g><g><title>PostgreSQL</title><rect fill="#000000" fill-opacity="0.00000" height="1308.9531" width="8" x="1131.2778" y="124.8281"/><line style="stroke:#181818;stroke-width:0.5;stroke-dasharray:5,5;" x1="1135.147" x2="1135.147" y1="124.8281" y2="1433.7813"/></g><g><title>Admin . Staff</title><rect fill="#000000" fill-opacity="0.00000" height="1308.9531" width="8" x="1225.481" y="124.8281"/><line style="stroke:#181818;stroke-width:0.5;stroke-dasharray:5,5;" x1="1229.4087" x2="1229.4087" y1="124.8281" y2="1433.7813"/></g><g class="participant participant-head" data-participant="Customer"><text fill="#000000" font-family="sans-serif" font-size="14" lengthAdjust="spacing" textLength="74.7305" x="5" y="121.752">Kh&#225;ch h&#224;ng</text><ellipse cx="45.3652" cy="55.7188" fill="#E2E2F0" rx="8" ry="8" style="stroke:#181818;stroke-width:0.5;"/><path d="M45.3652,63.7188 L45.3652,90.7188 M32.3652,71.7188 L58.3652,71.7188 M45.3652,90.7188 L32.3652,105.7188 M45.3652,90.7188 L58.3652,105.7188" fill="none" style="stroke:#181818;stroke-width:0.5;"/></g><g class="participant participant-tail" data-participant="Customer"><text fill="#000000" font-family="sans-serif" font-size="14" lengthAdjust="spacing" textLength="74.7305" x="5" y="1447.3145">Kh&#225;ch h&#224;ng</text><ellipse cx="45.3652" cy="1458.8906" fill="#E2E2F0" rx="8" ry="8" style="stroke:#181818;stroke-width:0.5;"/><path d="M45.3652,1466.8906 L45.3652,1493.8906 M32.3652,1474.8906 L58.3652,1474.8906 M45.3652,1493.8906 L32.3652,1508.8906 M45.3652,1493.8906 L58.3652,1508.8906" fill="none" style="stroke:#181818;stroke-width:0.5;"/></g><g class="participant participant-head" data-participant="Mobile"><rect fill="#E2E2F0" height="31.6094" rx="2.5" ry="2.5" style="stroke:#181818;stroke-width:0.5;" width="84.041" x="283.5806" y="92.2188"/><text fill="#000000" font-family="sans-serif" font-size="14" lengthAdjust="spacing" textLength="70.041" x="290.5806" y="113.752">App Mobile</text></g><g class="participant participant-tail" data-participant="Mobile"><rect fill="#E2E2F0" height="31.6094" rx="2.5" ry="2.5" style="stroke:#181818;stroke-width:0.5;" width="84.041" x="283.5806" y="1432.7813"/><text fill="#000000" font-family="sans-serif" font-size="14" lengthAdjust="spacing" textLength="70.041" x="290.5806" y="1454.3145">App Mobile</text></g><g class="participant participant-head" data-participant="Backend"><rect fill="#E2E2F0" height="49.2188" rx="2.5" ry="2.5" style="stroke:#181818;stroke-width:0.5;" width="94.9375" x="497.8921" y="74.6094"/><text fill="#000000" font-family="sans-serif" font-size="14" lengthAdjust="spacing" textLength="80.9375" x="504.8921" y="96.1426">API Backend</text><text fill="#000000" font-family="sans-serif" font-size="14" lengthAdjust="spacing" textLength="54.4482" x="518.1367" y="113.752">(NestJS)</text></g><g class="participant participant-tail" data-participant="Backend"><rect fill="#E2E2F0" height="49.2188" rx="2.5" ry="2.5" style="stroke:#181818;stroke-width:0.5;" width="94.9375" x="497.8921" y="1432.7813"/><text fill="#000000" font-family="sans-serif" font-size="14" lengthAdjust="spacing" textLength="80.9375" x="504.8921" y="1454.3145">API Backend</text><text fill="#000000" font-family="sans-serif" font-size="14" lengthAdjust="spacing" textLength="54.4482" x="518.1367" y="1471.9238">(NestJS)</text></g><g class="participant participant-head" data-participant="DB"><text fill="#000000" font-family="sans-serif" font-size="14" lengthAdjust="spacing" textLength="76.2617" x="1094.147" y="104.1426">PostgreSQL</text><text fill="#000000" font-family="sans-serif" font-size="14" lengthAdjust="spacing" textLength="72.3789" x="1096.0884" y="121.752">(Supabase)</text><path d="M1117.2778,53.6094 C1117.2778,43.6094 1135.2778,43.6094 1135.2778,43.6094 C1135.2778,43.6094 1153.2778,43.6094 1153.2778,53.6094 L1153.2778,79.6094 C1153.2778,89.6094 1135.2778,89.6094 1135.2778,89.6094 C1135.2778,89.6094 1117.2778,89.6094 1117.2778,79.6094 L1117.2778,53.6094" fill="#E2E2F0" style="stroke:#181818;stroke-width:0.5;"/><path d="M1117.2778,53.6094 C1117.2778,63.6094 1135.2778,63.6094 1135.2778,63.6094 C1135.2778,63.6094 1153.2778,63.6094 1153.2778,53.6094" fill="none" style="stroke:#181818;stroke-width:0.5;"/></g><g class="participant participant-tail" data-participant="DB"><text fill="#000000" font-family="sans-serif" font-size="14" lengthAdjust="spacing" textLength="76.2617" x="1094.147" y="1447.3145">PostgreSQL</text><text fill="#000000" font-family="sans-serif" font-size="14" lengthAdjust="spacing" textLength="72.3789" x="1096.0884" y="1464.9238">(Supabase)</text><path d="M1117.2778,1478 C1117.2778,1468 1135.2778,1468 1135.2778,1468 C1135.2778,1468 1153.2778,1468 1153.2778,1478 L1153.2778,1504 C1153.2778,1514 1135.2778,1514 1135.2778,1514 C1135.2778,1514 1117.2778,1514 1117.2778,1504 L1117.2778,1478" fill="#E2E2F0" style="stroke:#181818;stroke-width:0.5;"/><path d="M1117.2778,1478 C1117.2778,1488 1135.2778,1488 1135.2778,1488 C1135.2778,1488 1153.2778,1488 1153.2778,1478" fill="none" style="stroke:#181818;stroke-width:0.5;"/></g><g class="participant participant-head" data-participant="Staff"><text fill="#000000" font-family="sans-serif" font-size="14" lengthAdjust="spacing" textLength="80.1445" x="1186.4087" y="121.752">Admin / Staff</text><ellipse cx="1229.481" cy="55.7188" fill="#E2E2F0" rx="8" ry="8" style="stroke:#181818;stroke-width:0.5;"/><path d="M1229.481,63.7188 L1229.481,90.7188 M1216.481,71.7188 L1242.481,71.7188 M1229.481,90.7188 L1216.481,105.7188 M1229.481,90.7188 L1242.481,105.7188" fill="none" style="stroke:#181818;stroke-width:0.5;"/></g><g class="participant participant-tail" data-participant="Staff"><text fill="#000000" font-family="sans-serif" font-size="14" lengthAdjust="spacing" textLength="80.1445" x="1186.4087" y="1447.3145">Admin / Staff</text><ellipse cx="1229.481" cy="1458.8906" fill="#E2E2F0" rx="8" ry="8" style="stroke:#181818;stroke-width:0.5;"/><path d="M1229.481,1466.8906 L1229.481,1493.8906 M1216.481,1474.8906 L1242.481,1474.8906 M1229.481,1493.8906 L1216.481,1508.8906 M1229.481,1493.8906 L1242.481,1508.8906" fill="none" style="stroke:#181818;stroke-width:0.5;"/></g><g><title>API Backend</title><rect fill="#FFFFFF" height="1288.9531" style="stroke:#181818;stroke-width:1;" width="10" x="540.3608" y="134.8281"/></g><rect fill="#EEEEEE" height="3" style="stroke:#EEEEEE;stroke-width:1;" width="1620.7725" x="0" y="156.0039"/><line style="stroke:#000000;stroke-width:1;" x1="0" x2="1620.7725" y1="156.0039" y2="156.0039"/><line style="stroke:#000000;stroke-width:1;" x1="0" x2="1620.7725" y1="159.0039" y2="159.0039"/><rect fill="#EEEEEE" height="24.3516" style="stroke:#000000;stroke-width:2;" width="123.6431" x="748.5647" y="144.8281"/><text fill="#000000" font-family="sans-serif" font-size="13" font-weight="bold" lengthAdjust="spacing" textLength="106.0313" x="754.5647" y="162.3232">1. Kh&#225;ch t&#7841;o &#273;&#417;n</text><g class="message" data-participant-1="Customer" data-participant-2="Mobile"><polygon fill="#181818" points="313.6011,197.5313,323.6011,201.5313,313.6011,205.5313,317.6011,201.5313" style="stroke:#181818;stroke-width:1;"/><line style="stroke:#181818;stroke-width:1;" x1="45.3652" x2="319.6011" y1="201.5313" y2="201.5313"/><text fill="#000000" font-family="sans-serif" font-size="13" lengthAdjust="spacing" textLength="185.5801" x="52.3652" y="196.6748">Ch&#7885;n d&#7883;ch v&#7909;, &#273;&#7883;a ch&#7881;, khung gi&#7901;</text></g><g class="message" data-participant-1="Mobile" data-participant-2="Backend"><polygon fill="#181818" points="528.3608,247.2344,538.3608,251.2344,528.3608,255.2344,532.3608,251.2344" style="stroke:#181818;stroke-width:1;"/><line style="stroke:#181818;stroke-width:1;" x1="325.6011" x2="534.3608" y1="251.2344" y2="251.2344"/><text fill="#000000" font-family="sans-serif" font-size="13" lengthAdjust="spacing" textLength="79.4663" x="332.6011" y="246.3779">POST /orders</text></g><path d="M555,214.5313 L555,273.5313 L781,273.5313 L781,224.5313 L771,214.5313 L555,214.5313" fill="#FEFFDD" style="stroke:#181818;stroke-width:0.5;"/><path d="M771,214.5313 L771,224.5313 L781,224.5313 L771,214.5313" fill="#FEFFDD" style="stroke:#181818;stroke-width:0.5;"/><text fill="#000000" font-family="sans-serif" font-size="13" lengthAdjust="spacing" textLength="197.9771" x="561" y="233.0264">dto: orderType, items[] {serviceId},</text><text fill="#000000" font-family="sans-serif" font-size="13" lengthAdjust="spacing" textLength="205.207" x="561" y="249.3779">pickup/deliveryAddressId, windows,</text><text fill="#000000" font-family="sans-serif" font-size="13" lengthAdjust="spacing" textLength="156.8315" x="561" y="265.7295">contact name/phone, notes</text><g class="message" data-participant-1="Backend" data-participant-2="Backend"><line style="stroke:#181818;stroke-width:1;" x1="550.3608" x2="592.3608" y1="300.9375" y2="300.9375"/><line style="stroke:#181818;stroke-width:1;" x1="592.3608" x2="592.3608" y1="300.9375" y2="313.9375"/><line style="stroke:#181818;stroke-width:1;" x1="551.3608" x2="592.3608" y1="313.9375" y2="313.9375"/><polygon fill="#181818" points="561.3608,309.9375,551.3608,313.9375,561.3608,317.9375,557.3608,313.9375" style="stroke:#181818;stroke-width:1;"/><text fill="#000000" font-family="sans-serif" font-size="13" lengthAdjust="spacing" textLength="360.5596" x="557.3608" y="296.0811">validate DTO (&#273;&#7883;a ch&#7881; + khung gi&#7901;, &#8805;6h, &#8804;22h, kh&#244;ng qu&#225; kh&#7913;)</text></g><g class="message" data-participant-1="Backend" data-participant-2="DB"><polygon fill="#181818" points="1123.2778,359.6406,1133.2778,363.6406,1123.2778,367.6406,1127.2778,363.6406" style="stroke:#181818;stroke-width:1;"/><line style="stroke:#181818;stroke-width:1;" x1="550.3608" x2="1129.2778" y1="363.6406" y2="363.6406"/><text fill="#000000" font-family="sans-serif" font-size="13" lengthAdjust="spacing" textLength="382.2051" x="557.3608" y="358.7842">SELECT services (isActive) + snapshot pricePerUnit &#8594; orderItems</text></g><path d="M1140,326.9375 L1140,385.9375 L1385,385.9375 L1385,336.9375 L1375,326.9375 L1140,326.9375" fill="#FEFFDD" style="stroke:#181818;stroke-width:0.5;"/><path d="M1375,326.9375 L1375,336.9375 L1385,336.9375 L1375,326.9375" fill="#FEFFDD" style="stroke:#181818;stroke-width:0.5;"/><text fill="#000000" font-family="sans-serif" font-size="13" lengthAdjust="spacing" textLength="179.5625" x="1146" y="345.4326">totalPrice = 0 (t&#237;nh sau khi c&#226;n)</text><text fill="#000000" font-family="sans-serif" font-size="13" lengthAdjust="spacing" textLength="224.7769" x="1146" y="361.7842">ONLINE: t&#7921; g&#225;n washer kh&#7843; d&#7909;ng nh&#7845;t</text><text fill="#000000" font-family="sans-serif" font-size="13" lengthAdjust="spacing" textLength="210.8311" x="1146" y="378.1357">(isAvailable, m&#7899;i c&#7853;p nh&#7853;t v&#7883; tr&#237; nh&#7845;t)</text><g class="message" data-participant-1="Backend" data-participant-2="DB"><polygon fill="#181818" points="1123.2778,409.3438,1133.2778,413.3438,1123.2778,417.3438,1127.2778,413.3438" style="stroke:#181818;stroke-width:1;"/><line style="stroke:#181818;stroke-width:1;" x1="550.3608" x2="1129.2778" y1="413.3438" y2="413.3438"/><text fill="#000000" font-family="sans-serif" font-size="13" lengthAdjust="spacing" textLength="468.5332" x="557.3608" y="408.4873">INSERT orders (status=PENDING, paymentStatus=PENDING, staff_id=washer?)</text></g><g class="message" data-participant-1="Backend" data-participant-2="DB"><polygon fill="#181818" points="1123.2778,439.6953,1133.2778,443.6953,1123.2778,447.6953,1127.2778,443.6953" style="stroke:#181818;stroke-width:1;"/><line style="stroke:#181818;stroke-width:1;" x1="550.3608" x2="1129.2778" y1="443.6953" y2="443.6953"/><text fill="#000000" font-family="sans-serif" font-size="13" lengthAdjust="spacing" textLength="286.1333" x="557.3608" y="438.8389">INSERT order_items (quantity=null, subtotal=null)</text></g><g class="message" data-participant-1="Backend" data-participant-2="DB"><polygon fill="#181818" points="1123.2778,470.0469,1133.2778,474.0469,1123.2778,478.0469,1127.2778,474.0469" style="stroke:#181818;stroke-width:1;"/><line style="stroke:#181818;stroke-width:1;" x1="550.3608" x2="1129.2778" y1="474.0469" y2="474.0469"/><text fill="#000000" font-family="sans-serif" font-size="13" lengthAdjust="spacing" textLength="409.6143" x="557.3608" y="469.1904">INSERT order_tracking_logs (status=PENDING, "&#272;&#417;n h&#224;ng &#273;&#432;&#7907;c t&#7841;o")</text></g><g class="message" data-participant-1="DB" data-participant-2="Backend"><polygon fill="#181818" points="561.3608,500.3984,551.3608,504.3984,561.3608,508.3984,557.3608,504.3984" style="stroke:#181818;stroke-width:1;"/><line style="stroke:#181818;stroke-width:1;stroke-dasharray:2,2;" x1="555.3608" x2="1134.2778" y1="504.3984" y2="504.3984"/><text fill="#000000" font-family="sans-serif" font-size="13" lengthAdjust="spacing" textLength="213.8525" x="567.3608" y="499.542">order (k&#232;m orderItems, trackingLogs)</text></g><g class="message" data-participant-1="Backend" data-participant-2="Mobile"><polygon fill="#181818" points="336.6011,530.75,326.6011,534.75,336.6011,538.75,332.6011,534.75" style="stroke:#181818;stroke-width:1;"/><line style="stroke:#181818;stroke-width:1;stroke-dasharray:2,2;" x1="330.6011" x2="539.3608" y1="534.75" y2="534.75"/><text fill="#000000" font-family="sans-serif" font-size="13" lengthAdjust="spacing" textLength="190.7598" x="342.6011" y="529.8936">201 { orderId, status: PENDING }</text></g><g class="message" data-participant-1="Mobile" data-participant-2="Customer"><polygon fill="#181818" points="56.3652,561.1016,46.3652,565.1016,56.3652,569.1016,52.3652,565.1016" style="stroke:#181818;stroke-width:1;"/><line style="stroke:#181818;stroke-width:1;stroke-dasharray:2,2;" x1="50.3652" x2="324.6011" y1="565.1016" y2="565.1016"/><text fill="#000000" font-family="sans-serif" font-size="13" lengthAdjust="spacing" textLength="256.2358" x="62.3652" y="560.2451">"&#272;&#417;n &#273;&#227; t&#7841;o &#8212; t&#7893;ng ti&#7873;n s&#7869; t&#237;nh sau khi c&#226;n"</text></g><rect fill="#EEEEEE" height="3" style="stroke:#EEEEEE;stroke-width:1;" width="1620.7725" x="0" y="594.2773"/><line style="stroke:#000000;stroke-width:1;" x1="0" x2="1620.7725" y1="594.2773" y2="594.2773"/><line style="stroke:#000000;stroke-width:1;" x1="0" x2="1620.7725" y1="597.2773" y2="597.2773"/><rect fill="#EEEEEE" height="24.3516" style="stroke:#000000;stroke-width:2;" width="149.6558" x="735.5583" y="583.1016"/><text fill="#000000" font-family="sans-serif" font-size="13" font-weight="bold" lengthAdjust="spacing" textLength="132.0439" x="741.5583" y="600.5967">2. Staff x&#225;c nh&#7853;n &#273;&#417;n</text><g class="message" data-participant-1="Staff" data-participant-2="Backend"><polygon fill="#181818" points="561.3608,635.8047,551.3608,639.8047,561.3608,643.8047,557.3608,639.8047" style="stroke:#181818;stroke-width:1;"/><line style="stroke:#181818;stroke-width:1;" x1="555.3608" x2="1228.481" y1="639.8047" y2="639.8047"/><text fill="#000000" font-family="sans-serif" font-size="13" lengthAdjust="spacing" textLength="283.9116" x="567.3608" y="634.9482">PATCH /orders/:id/status { status: CONFIRMED }</text></g><g class="message" data-participant-1="Backend" data-participant-2="Backend"><line style="stroke:#181818;stroke-width:1;" x1="550.3608" x2="592.3608" y1="670.1563" y2="670.1563"/><line style="stroke:#181818;stroke-width:1;" x1="592.3608" x2="592.3608" y1="670.1563" y2="683.1563"/><line style="stroke:#181818;stroke-width:1;" x1="551.3608" x2="592.3608" y1="683.1563" y2="683.1563"/><polygon fill="#181818" points="561.3608,679.1563,551.3608,683.1563,561.3608,687.1563,557.3608,683.1563" style="stroke:#181818;stroke-width:1;"/><text fill="#000000" font-family="sans-serif" font-size="13" lengthAdjust="spacing" textLength="499.8716" x="557.3608" y="665.2998">ki&#7875;m tra VALID_TRANSITIONS (PENDING&#8594;CONFIRMED) + ORDER_TYPE_FLOWS</text></g><g class="message" data-participant-1="Backend" data-participant-2="DB"><polygon fill="#181818" points="1123.2778,709.5078,1133.2778,713.5078,1123.2778,717.5078,1127.2778,713.5078" style="stroke:#181818;stroke-width:1;"/><line style="stroke:#181818;stroke-width:1;" x1="550.3608" x2="1129.2778" y1="713.5078" y2="713.5078"/><text fill="#000000" font-family="sans-serif" font-size="13" lengthAdjust="spacing" textLength="246.689" x="557.3608" y="708.6514">UPDATE orders SET status=CONFIRMED</text></g><g class="message" data-participant-1="Backend" data-participant-2="DB"><polygon fill="#181818" points="1123.2778,759.2109,1133.2778,763.2109,1123.2778,767.2109,1127.2778,763.2109" style="stroke:#181818;stroke-width:1;"/><line style="stroke:#181818;stroke-width:1;" x1="550.3608" x2="1129.2778" y1="763.2109" y2="763.2109"/><text fill="#000000" font-family="sans-serif" font-size="13" lengthAdjust="spacing" textLength="307.4551" x="557.3608" y="758.3545">INSERT order_tracking_logs + Notification cho kh&#225;ch</text></g><path d="M1140,726.5078 L1140,785.5078 L1482,785.5078 L1482,736.5078 L1472,726.5078 L1140,726.5078" fill="#FEFFDD" style="stroke:#181818;stroke-width:0.5;"/><path d="M1472,726.5078 L1472,736.5078 L1482,736.5078 L1472,726.5078" fill="#FEFFDD" style="stroke:#181818;stroke-width:0.5;"/><text fill="#000000" font-family="sans-serif" font-size="13" lengthAdjust="spacing" textLength="321.1787" x="1146" y="745.0029">Notification (type=ORDER_STATUS) l&#432;u DB cho kh&#225;ch</text><text fill="#000000" font-family="sans-serif" font-size="13" lengthAdjust="spacing" textLength="237.2754" x="1146" y="761.3545">+ emit WebSocket 'order.status-changed'</text><text fill="#000000" font-family="sans-serif" font-size="13" lengthAdjust="spacing" textLength="162.2271" x="1146" y="777.7061">(gateway &#8594; room order-{id})</text><g class="message" data-participant-1="DB" data-participant-2="Backend"><polygon fill="#181818" points="561.3608,808.9141,551.3608,812.9141,561.3608,816.9141,557.3608,812.9141" style="stroke:#181818;stroke-width:1;"/><line style="stroke:#181818;stroke-width:1;stroke-dasharray:2,2;" x1="555.3608" x2="1134.2778" y1="812.9141" y2="812.9141"/><text fill="#000000" font-family="sans-serif" font-size="13" lengthAdjust="spacing" textLength="13.73" x="567.3608" y="808.0576">ok</text></g><g class="message" data-participant-1="Backend" data-participant-2="Staff"><polygon fill="#181818" points="1217.481,839.2656,1227.481,843.2656,1217.481,847.2656,1221.481,843.2656" style="stroke:#181818;stroke-width:1;"/><line style="stroke:#181818;stroke-width:1;stroke-dasharray:2,2;" x1="550.3608" x2="1223.481" y1="843.2656" y2="843.2656"/><text fill="#000000" font-family="sans-serif" font-size="13" lengthAdjust="spacing" textLength="161.8335" x="557.3608" y="838.4092">200 { status: CONFIRMED }</text></g><rect fill="#EEEEEE" height="3" style="stroke:#EEEEEE;stroke-width:1;" width="1620.7725" x="0" y="872.4414"/><line style="stroke:#000000;stroke-width:1;" x1="0" x2="1620.7725" y1="872.4414" y2="872.4414"/><line style="stroke:#000000;stroke-width:1;" x1="0" x2="1620.7725" y1="875.4414" y2="875.4414"/><rect fill="#EEEEEE" height="24.3516" style="stroke:#000000;stroke-width:2;" width="107.9136" x="756.4294" y="861.2656"/><text fill="#000000" font-family="sans-serif" font-size="13" font-weight="bold" lengthAdjust="spacing" textLength="90.3018" x="762.4294" y="878.7607">3. G&#225;n shipper</text><path d="M457.8921,902.6172 L518.063,902.6172 L518.063,910.9688 L508.063,920.9688 L457.8921,920.9688 L457.8921,902.6172" fill="#EEEEEE" style="stroke:#000000;stroke-width:1.5;"/><rect fill="none" height="514.1641" style="stroke:#000000;stroke-width:1.5;" width="1152.8804" x="457.8921" y="902.6172"/><text fill="#000000" font-family="sans-serif" font-size="13" font-weight="bold" lengthAdjust="spacing" textLength="15.1709" x="472.8921" y="917.1123">alt</text><text fill="#000000" font-family="sans-serif" font-size="11" font-weight="bold" lengthAdjust="spacing" textLength="243.2354" x="533.063" y="916.0361">[T&#7921; &#273;&#7897;ng (m&#7863;c &#273;&#7883;nh, ADMIN b&#7845;m auto-assign)]</text><g class="message" data-participant-1="Staff" data-participant-2="Backend"><polygon fill="#181818" points="561.3608,983.1992,551.3608,987.1992,561.3608,991.1992,557.3608,987.1992" style="stroke:#181818;stroke-width:1;"/><line style="stroke:#181818;stroke-width:1;" x1="555.3608" x2="1228.481" y1="987.1992" y2="987.1992"/><text fill="#000000" font-family="sans-serif" font-size="13" lengthAdjust="spacing" textLength="167.6289" x="567.3608" y="982.3428">POST /orders/:id/auto-assign</text></g><path d="M1234,925.9688 L1234,1033.9688 L1595,1033.9688 L1595,935.9688 L1585,925.9688 L1234,925.9688" fill="#FEFFDD" style="stroke:#181818;stroke-width:0.5;"/><path d="M1585,925.9688 L1585,935.9688 L1595,935.9688 L1585,925.9688" fill="#FEFFDD" style="stroke:#181818;stroke-width:0.5;"/><text fill="#000000" font-family="sans-serif" font-size="13" lengthAdjust="spacing" textLength="213.9541" x="1240" y="944.4639">ho&#7863;c t&#7921; k&#237;ch ho&#7841;t trong updateStatus</text><text fill="#000000" font-family="sans-serif" font-size="13" lengthAdjust="spacing" textLength="273.8442" x="1240" y="960.8154">khi CONFIRMED + ONLINE + ch&#432;a c&#243; shipper.</text><text fill="#000000" font-family="sans-serif" font-size="13" lengthAdjust="spacing" textLength="281.0171" x="1240" y="977.167">&#7902; CONFIRMED + ONLINE c&#242;n t&#7921; chuy&#7875;n status</text><text fill="#000000" font-family="sans-serif" font-size="13" lengthAdjust="spacing" textLength="275.2344" x="1240" y="993.5186">sang PICKING_UP + Notification "Shipper &#273;ang</text><text fill="#000000" font-family="sans-serif" font-size="13" lengthAdjust="spacing" textLength="131.0918" x="1240" y="1009.8701">&#273;&#7871;n l&#7845;y &#273;&#7891;" cho kh&#225;ch.</text><text fill="#000000" font-family="sans-serif" font-size="13" lengthAdjust="spacing" textLength="340.2915" x="1240" y="1026.2217">(G&#225;n l&#250;c COMPLETED/DELIVERING th&#236; kh&#244;ng &#273;&#7893;i status.)</text><g class="message" data-participant-1="Backend" data-participant-2="DB"><polygon fill="#181818" points="1123.2778,1057.4297,1133.2778,1061.4297,1123.2778,1065.4297,1127.2778,1061.4297" style="stroke:#181818;stroke-width:1;"/><line style="stroke:#181818;stroke-width:1;" x1="550.3608" x2="1129.2778" y1="1061.4297" y2="1061.4297"/><text fill="#000000" font-family="sans-serif" font-size="13" lengthAdjust="spacing" textLength="387.334" x="557.3608" y="1056.5732">SELECT shipper (isAvailable) &#8594; &#273;i&#7875;m s&#7889; 0.7*kho&#7843;ng c&#225;ch + 0.3*t&#7843;i</text></g><g class="message" data-participant-1="Backend" data-participant-2="DB"><polygon fill="#181818" points="1123.2778,1087.7813,1133.2778,1091.7813,1123.2778,1095.7813,1127.2778,1091.7813" style="stroke:#181818;stroke-width:1;"/><line style="stroke:#181818;stroke-width:1;" x1="550.3608" x2="1129.2778" y1="1091.7813" y2="1091.7813"/><text fill="#000000" font-family="sans-serif" font-size="13" lengthAdjust="spacing" textLength="217.8389" x="557.3608" y="1086.9248">UPDATE orders SET staff_id=shipper</text></g><path d="M467.8921,1106.7813 L528.063,1106.7813 L528.063,1115.1328 L518.063,1125.1328 L467.8921,1125.1328 L467.8921,1106.7813" fill="#EEEEEE" style="stroke:#000000;stroke-width:1.5;"/><rect fill="none" height="48.7031" style="stroke:#000000;stroke-width:1.5;" width="718.5166" x="467.8921" y="1106.7813"/><text fill="#000000" font-family="sans-serif" font-size="13" font-weight="bold" lengthAdjust="spacing" textLength="15.1709" x="482.8921" y="1121.2764">alt</text><text fill="#000000" font-family="sans-serif" font-size="11" font-weight="bold" lengthAdjust="spacing" textLength="128.0254" x="543.063" y="1120.2002">[CONFIRMED + ONLINE]</text><g class="message" data-participant-1="Backend" data-participant-2="DB"><polygon fill="#181818" points="1123.2778,1143.4844,1133.2778,1147.4844,1123.2778,1151.4844,1127.2778,1147.4844" style="stroke:#181818;stroke-width:1;"/><line style="stroke:#181818;stroke-width:1;" x1="550.3608" x2="1129.2778" y1="1147.4844" y2="1147.4844"/><text fill="#000000" font-family="sans-serif" font-size="13" lengthAdjust="spacing" textLength="560.917" x="557.3608" y="1142.6279">UPDATE orders SET status=PICKING_UP + tracking log + Notification "Shipper &#273;ang &#273;&#7871;n l&#7845;y &#273;&#7891;"</text></g><g class="message" data-participant-1="Backend" data-participant-2="Backend"><line style="stroke:#181818;stroke-width:1;" x1="550.3608" x2="592.3608" y1="1184.8359" y2="1184.8359"/><line style="stroke:#181818;stroke-width:1;" x1="592.3608" x2="592.3608" y1="1184.8359" y2="1197.8359"/><line style="stroke:#181818;stroke-width:1;" x1="551.3608" x2="592.3608" y1="1197.8359" y2="1197.8359"/><polygon fill="#181818" points="561.3608,1193.8359,551.3608,1197.8359,561.3608,1201.8359,557.3608,1197.8359" style="stroke:#181818;stroke-width:1;"/><text fill="#000000" font-family="sans-serif" font-size="13" lengthAdjust="spacing" textLength="322.5498" x="557.3608" y="1179.9795">emit 'order.assigned' (gateway &#8594; room staff-{shipperId})</text></g><g class="message" data-participant-1="Backend" data-participant-2="Staff"><polygon fill="#181818" points="1217.481,1224.1875,1227.481,1228.1875,1217.481,1232.1875,1221.481,1228.1875" style="stroke:#181818;stroke-width:1;"/><line style="stroke:#181818;stroke-width:1;stroke-dasharray:2,2;" x1="550.3608" x2="1223.481" y1="1228.1875" y2="1228.1875"/><text fill="#000000" font-family="sans-serif" font-size="13" lengthAdjust="spacing" textLength="211.7197" x="557.3608" y="1223.3311">200 { shipper, status: PICKING_UP }</text></g><line style="stroke:#000000;stroke-width:1;stroke-dasharray:2,2;" x1="457.8921" x2="1610.7725" y1="1237.1875" y2="1237.1875"/><text fill="#000000" font-family="sans-serif" font-size="11" font-weight="bold" lengthAdjust="spacing" textLength="163.1362" x="462.8921" y="1248.6064">[G&#225;n th&#7911; c&#244;ng (STAFF/ADMIN)]</text><g class="message" data-participant-1="Staff" data-participant-2="Backend"><polygon fill="#181818" points="561.3608,1270.375,551.3608,1274.375,561.3608,1278.375,557.3608,1274.375" style="stroke:#181818;stroke-width:1;"/><line style="stroke:#181818;stroke-width:1;" x1="555.3608" x2="1228.481" y1="1274.375" y2="1274.375"/><text fill="#000000" font-family="sans-serif" font-size="13" lengthAdjust="spacing" textLength="201.5889" x="567.3608" y="1269.5186">PATCH /orders/:id/assign { staffId }</text></g><g class="message" data-participant-1="Backend" data-participant-2="Backend"><line style="stroke:#181818;stroke-width:1;" x1="550.3608" x2="592.3608" y1="1304.7266" y2="1304.7266"/><line style="stroke:#181818;stroke-width:1;" x1="592.3608" x2="592.3608" y1="1304.7266" y2="1317.7266"/><line style="stroke:#181818;stroke-width:1;" x1="551.3608" x2="592.3608" y1="1317.7266" y2="1317.7266"/><polygon fill="#181818" points="561.3608,1313.7266,551.3608,1317.7266,561.3608,1321.7266,557.3608,1317.7266" style="stroke:#181818;stroke-width:1;"/><text fill="#000000" font-family="sans-serif" font-size="13" lengthAdjust="spacing" textLength="458.0913" x="557.3608" y="1299.8701">validate staffType=SHIPPER, &#273;&#417;n &#7903; CONFIRMED/COMPLETED/DELIVERING</text></g><g class="message" data-participant-1="Backend" data-participant-2="DB"><polygon fill="#181818" points="1123.2778,1344.0781,1133.2778,1348.0781,1123.2778,1352.0781,1127.2778,1348.0781" style="stroke:#181818;stroke-width:1;"/><line style="stroke:#181818;stroke-width:1;" x1="550.3608" x2="1129.2778" y1="1348.0781" y2="1348.0781"/><text fill="#000000" font-family="sans-serif" font-size="13" lengthAdjust="spacing" textLength="217.8389" x="557.3608" y="1343.2217">UPDATE orders SET staff_id=shipper</text></g><g class="message" data-participant-1="Backend" data-participant-2="DB"><polygon fill="#181818" points="1123.2778,1374.4297,1133.2778,1378.4297,1123.2778,1382.4297,1127.2778,1378.4297" style="stroke:#181818;stroke-width:1;"/><line style="stroke:#181818;stroke-width:1;" x1="550.3608" x2="1129.2778" y1="1378.4297" y2="1378.4297"/><text fill="#000000" font-family="sans-serif" font-size="13" lengthAdjust="spacing" textLength="214.8174" x="557.3608" y="1373.5732">tracking log "Thay washer &#8594; shipper"</text></g><g class="message" data-participant-1="Backend" data-participant-2="Staff"><polygon fill="#181818" points="1217.481,1404.7813,1227.481,1408.7813,1217.481,1412.7813,1221.481,1408.7813" style="stroke:#181818;stroke-width:1;"/><line style="stroke:#181818;stroke-width:1;stroke-dasharray:2,2;" x1="550.3608" x2="1223.481" y1="1408.7813" y2="1408.7813"/><text fill="#000000" font-family="sans-serif" font-size="13" lengthAdjust="spacing" textLength="132.9834" x="557.3608" y="1403.9248">200 { staff_id: shipper }</text></g><!--SRC=[dLPTQ-D657tNhxYu3x4tZfraeGM3MvnOwQhhs6gax5BQ4cHfOWsM9QqqIjQ4G4kXi2o5fjjzAAKVQHhQGWFPjb2mAVkWiFz3-qjwPoGxSk8DtUOXbaPtxfnxvfmxi_36w_v92z1MDjTQChpyv6lGo8E8k2Q1bHheoUZOWukZ5ySkBCB3-DW4rqv6P_oj5-DWQ5FV9m5cQ2RZymReT-GEc9v5WDd9-9a9B1azhq4Oc5Kli4YG_g-49DYZ9gcm46SkYi- -CHmGbqr-vuNiasxecNt2qYnBB33CFdLxbPx1oBun5B6lNxqKOXBV28m1E7INEDGb6gPcf3U4q7EebGjGZO1Ha_g6orJ3id1nM5tEVL_p7ax6LvObHfb3e1KbuoTyO9RFbvz_DSCeVv_XL39CvWLGk6jZb0rs_AFRAu0HmdeKCc-04Vub6YWqV1yslIvrY0XA7w-4g0gi8MV4jJvoYsqIilUqaeZEHYNBO4RN20aKL2zalO1exxSmL8jyCPm6DzScq1hMWBfG1OqPkxlYctWIqEaUKZXDBDNhi5A1h1QMuw5UbwH9HR3qTWQy1kiee2zSi9BnOvonbunFopW3tmmmyTEZClJj26djqMJydPJEulEp5MkWTZGTKgc4akiXc83sR2O1MCohWVYW3trI1ih88FpmOpZ8HATOXsKCywdPZ_ogXPBO8y6mOLa12KF5AiC-TIrlF-H1fkSoh1PSOq2glksvc8yl5ae8GZn9KWPf1jsUWShY33Nr3XJpXQ7QSvMLuUMZqpTj_lFpwghDgux_meyFelWOdvFnRwLy_kPQ3JIv9Q_ha1KJGf663RuVfCIDv1f-Q7iC_00_gYJOTYaJuXE4A9oAMRQOnmn7vT5GXsKeilZCjI4q8boUWXd_v9OmgjDkAMsvXbixVfRgUDy8RTnIn3WwuTjuYgYvrazvKevfpw2EqNMGi44o_XPJeG_yr0wCR_XZO45ybiqfNV9vfLobhSbRUWeVYmsPmQAmhihjfj9-jmnPGz6k38TSg3lKggSmtodTb7P7A0IA3oBq4MN3kXiv3kQ8ke8SyNfpWaclsd6ytXoGXOilkHU4nxalpfFnYPdQf52IcckmbDUEI0d5Vlph8BThPPWiqi8rSd1ofbfTNe63R8ubI40OQ9KK1nnEVOHp9gQiJT1T7CKdcNNvGO4x_HJHCbJffzYraj4_S5qQ1U7yrKhQ66OQtgNzqsyptctewtScvgtMg5LDeIBu2URrJdj3sTgKcuXwdi7wYEkp0US4xZLQIdD7tsgqDKLNEcqDYbd5gFjf7kwEpbPJtjhHFr3bdOrMvxvsTK-trMP3boTQqsGzWrEVPdaD5In2ssDqbve6evwBvlUukR4_plfl9gZ8i6FLKvYQtj2tjH8uByuZN2kV030v6Q2nxvEk9ivCMCYENe5toRGDjqUi1Mx5xFWKJI3ml4nJImVKEiovxfe8-pCA4tl81RRyYZtYEhXTWNTpHvpOVCDXU2vYq-0zy1iKL76GZFusqrxlOiDhD3ULDdIn2Gp0Y9YtP8GXxOccCqSukQOlT9ERWHDcY0MmFR6Kw5dz-8oViZXop50r7YA9VDwXqyuXuhcgBsjQp9eUFfZsYtDit_6Vaz8g8ZuPVpyltep_SDD5JJiQeapTZ34nASIT0LLPlulwtDbMhygae6NaNHnXe9Y1L8sUk-0WHKF1svD2JWmfbA8Wteb79YBQL5koBZUhJRcbt9EtkFMP7Vy-ELjuYgSqmrJXH4zL0F2AmoO3bU_h9Q6eYwFKY64oFeBbobkt-fpZ4rp657U1HHoyVGlRoWczddsktzA-FRac0N05NMTPLFrVxJj3zyIbW2wzcVrvpATipPOobQVmPER4L9JemJaE55Kk7MGrAjo8kOJNx9Q6vVhvPJc74d7mFYTsdz_9Vq7Q-HuNiNjiR5I5kLvXfMizE4MS-djtLx4m-VmofvSR4SWlMNNjZgAgybOvQ_l9-8VBFQlEK-J_5CELEJDxMT1j93cxbt2kisc56ydDrgXDDNueYHkjHQxTSly5]--></g></svg>